<?xml version="1.0" encoding="iso-8859-1"?>
<!-- Generator: Adobe Illustrator 19.0.0, SVG Export Plug-In . SVG Version: 6.00 Build 0)  -->
<svg version="1.1" id="Capa_1" xmlns="http://www.w3.org/2000/svg" xmlns:xlink="http://www.w3.org/1999/xlink" x="0px" y="0px"
	 viewBox="0 0 461.072 461.072" style="enable-background:new 0 0 461.072 461.072;" xml:space="preserve">
<g>
	<g>
		<path d="M413.604,176.823L413.604,176.823l-108.911-0.174l-88.255-72.613c-8.976-7.427-20.259-11.493-31.909-11.5h-20.05
			c-11.046,0.002-19.998,8.958-19.996,20.004c0.001,4.45,1.486,8.773,4.22,12.284l40.236,51.641l-97.3-0.156
			c-4.32-0.059-8.268-2.454-10.316-6.258c-0.285-0.498-0.611-0.97-0.977-1.412l-28.653-34.633
			c-10.269-12.427-28.668-14.177-41.096-3.908C0.38,138.542-2.866,152.81,2.693,164.843l30.464,66.007
			c4.294,10.65,13.945,18.198,25.316,19.8c0.083,0.011,0.167,0.022,0.25,0.031l132.86,14.314l-64.272,70.241
			c-0.058,0.064-0.115,0.129-0.172,0.194c-7.238,8.344-6.342,20.975,2.001,28.213c3.635,3.154,8.285,4.891,13.098,4.893h29.43
			c11.941-0.001,23.487-4.273,32.552-12.045l99.352-80.529l109.834,1.989h0.182c26.183,0,47.484-22.684,47.484-50.566
			C461.072,199.036,440.223,176.836,413.604,176.823z M164.483,112.536h20.046c7.003,0.006,13.785,2.455,19.176,6.925l69.45,57.139
			l-58.83-0.092L164.483,112.536z M413.669,257.953l-113.38-2.053c-2.354-0.041-4.648,0.748-6.478,2.23l-102.3,82.919l-0.238,0.2
			c-5.449,4.705-12.407,7.293-19.606,7.293h-29.42l77.431-84.615c3.729-4.074,3.449-10.4-0.625-14.128
			c-1.572-1.439-3.562-2.338-5.681-2.566L61.013,230.811c-4.284-0.662-7.876-3.589-9.389-7.651c-0.064-0.16-0.133-0.319-0.2-0.476
			l-30.569-66.222c-2.126-4.609-0.113-10.07,4.497-12.195c3.786-1.746,8.273-0.725,10.93,2.487l28.147,34.026
			c5.7,9.582,16.042,15.435,27.191,15.387l321.954,0.37h0.017c15.411,0,27.484,13.569,27.484,30.708
			C441.072,244.068,428.787,257.905,413.669,257.953z"/>
	</g>
</g>
<g>
</g>
<g>
</g>
<g>
</g>
<g>
</g>
<g>
</g>
<g>
</g>
<g>
</g>
<g>
</g>
<g>
</g>
<g>
</g>
<g>
</g>
<g>
</g>
<g>
</g>
<g>
</g>
<g>
</g>
</svg>
